<svg width="40" height="24" viewBox="0 0 40 24" fill="none" xmlns="http://www.w3.org/2000/svg">
    <path d="M2.5625 2.625C2.5625 2.53125 2.56641 2.42969 2.57422 2.32031C2.58203 2.21094 2.60938 2.11328 2.65625 2.02734C2.70312 1.93359 2.77734 1.85547 2.87891 1.79297C2.98047 1.73047 3.125 1.69922 3.3125 1.69922C3.5 1.69922 3.64453 1.73047 3.74609 1.79297C3.84766 1.85547 3.92188 1.93359 3.96875 2.02734C4.01562 2.11328 4.04297 2.21094 4.05078 2.32031C4.05859 2.42969 4.0625 2.53125 4.0625 2.625V19.125C4.0625 19.2188 4.05859 19.332 4.05078 19.4648C4.04297 19.5898 4.01562 19.7109 3.96875 19.8281C3.92188 19.9453 3.84766 20.0469 3.74609 20.1328C3.64453 20.2109 3.5 20.25 3.3125 20.25C3.125 20.25 2.98047 20.2109 2.87891 20.1328C2.77734 20.0469 2.70312 19.9453 2.65625 19.8281C2.60938 19.7109 2.58203 19.5898 2.57422 19.4648C2.56641 19.332 2.5625 19.2188 2.5625 19.125V2.625ZM5.5625 2.625C5.5625 2.5625 5.55859 2.46875 5.55078 2.34375C5.54297 2.21875 5.51953 2.08203 5.48047 1.93359C5.44141 1.77734 5.375 1.62109 5.28125 1.46484C5.1875 1.30078 5.05859 1.15234 4.89453 1.01953C4.73047 0.886719 4.51953 0.78125 4.26172 0.703125C4.00391 0.617188 3.6875 0.574219 3.3125 0.574219C2.9375 0.574219 2.62109 0.617188 2.36328 0.703125C2.10547 0.78125 1.89453 0.886719 1.73047 1.01953C1.56641 1.15234 1.4375 1.30078 1.34375 1.46484C1.25 1.62109 1.18359 1.77734 1.14453 1.93359C1.10547 2.08203 1.08203 2.21875 1.07422 2.34375C1.06641 2.46875 1.0625 2.5625 1.0625 2.625V19.125C1.0625 19.2188 1.07422 19.3906 1.09766 19.6406C1.12109 19.8828 1.20312 20.1328 1.34375 20.3906C1.48438 20.6484 1.70703 20.875 2.01172 21.0703C2.17578 21.1797 2.37109 21.2578 2.59766 21.3047L2.9375 24H4.4375L4.09766 21.293C4.30078 21.2383 4.47266 21.1641 4.61328 21.0703C4.91797 20.875 5.14062 20.6484 5.28125 20.3906C5.42188 20.1328 5.50391 19.8828 5.52734 19.6406C5.55078 19.3906 5.5625 19.2188 5.5625 19.125V2.625ZM9.6875 3H11.1875V19.3125C11.1875 19.6406 11.1289 19.9258 11.0117 20.168C10.8945 20.4023 10.7383 20.5977 10.543 20.7539C10.3477 20.9023 10.125 21.0117 9.875 21.082C9.63281 21.1523 9.38281 21.1875 9.125 21.1875C8.86719 21.1875 8.61328 21.1523 8.36328 21.082C8.12109 21.0117 7.90234 20.9023 7.70703 20.7539C7.51172 20.5977 7.35547 20.4023 7.23828 20.168C7.12109 19.9258 7.0625 19.6406 7.0625 19.3125V3H8.5625V19.3125C8.5625 19.5938 8.62109 19.7891 8.73828 19.8984C8.85547 20.0078 8.98438 20.0625 9.125 20.0625C9.26562 20.0625 9.39453 20.0078 9.51172 19.8984C9.62891 19.7891 9.6875 19.5938 9.6875 19.3125V3ZM16.8125 21H15.3125L15.0781 17.1094H14.0352L13.8125 21H12.3125L13.8125 3H15.3125L16.8125 21ZM14.9961 15.8906L14.5625 6.75L14.1172 15.8906H14.9961ZM20.9375 4.47656C20.9375 4.32812 20.8672 4.23437 20.7266 4.19531C20.5938 4.14844 20.1641 4.125 19.4375 4.125V19.875C20.1641 19.875 20.5938 19.8516 20.7266 19.8047C20.8672 19.7578 20.9375 19.6602 20.9375 19.5117V4.47656ZM22.4375 19.418C22.4375 19.8164 22.3516 20.125 22.1797 20.3438C22.0156 20.5547 21.7695 20.7109 21.4414 20.8125C21.2852 20.8594 21.0938 20.8984 20.8672 20.9297C20.6406 20.9531 20.3281 20.9727 19.9297 20.9883C19.5312 20.9961 19.1797 21 18.875 21H17.9375V3C18.2578 3 18.5781 3.00391 18.8984 3.01172C19.2266 3.01172 19.5586 3.01562 19.8945 3.02344C20.582 3.03906 21.0898 3.08984 21.418 3.17578C21.7539 3.26953 22.0078 3.42188 22.1797 3.63281C22.3516 3.83594 22.4375 4.12891 22.4375 4.51172V19.418ZM28.0625 10.5C28.0625 10.875 27.9688 11.1641 27.7812 11.3672C27.5938 11.5703 27.3125 11.7148 26.9375 11.8008C27.3125 11.9023 27.5938 12.0547 27.7812 12.2578C27.9688 12.4609 28.0625 12.75 28.0625 13.125V21H26.5625V13.125C26.5625 12.9375 26.5391 12.793 26.4922 12.6914C26.4453 12.5898 26.375 12.5156 26.2812 12.4688C26.1875 12.4219 26.0703 12.3945 25.9297 12.3867C25.7891 12.3789 25.625 12.375 25.4375 12.375V21H23.9375V3H25.625C26.1328 3 26.5664 3.04297 26.9258 3.12891C27.293 3.20703 27.5742 3.35156 27.7695 3.5625C27.9648 3.76562 28.0625 4.07812 28.0625 4.5V10.5ZM26.5625 4.875C26.5625 4.6875 26.5391 4.54297 26.4922 4.44141C26.4453 4.33984 26.375 4.26562 26.2812 4.21875C26.1875 4.17188 26.0703 4.14453 25.9297 4.13672C25.7891 4.12891 25.625 4.125 25.4375 4.125V11.25C25.625 11.25 25.7891 11.2461 25.9297 11.2383C26.0703 11.2305 26.1875 11.2031 26.2812 11.1562C26.375 11.1094 26.4453 11.0352 26.4922 10.9336C26.5391 10.832 26.5625 10.6875 26.5625 10.5V4.875ZM32.1875 3H33.6875V19.3125C33.6875 19.6406 33.6289 19.9258 33.5117 20.168C33.3945 20.4023 33.2383 20.5977 33.043 20.7539C32.8477 20.9023 32.625 21.0117 32.375 21.082C32.1328 21.1523 31.8828 21.1875 31.625 21.1875C31.3672 21.1875 31.1133 21.1523 30.8633 21.082C30.6211 21.0117 30.4023 20.9023 30.207 20.7539C30.0117 20.5977 29.8555 20.4023 29.7383 20.168C29.6211 19.9258 29.5625 19.6406 29.5625 19.3125V3H31.0625V19.3125C31.0625 19.5938 31.1211 19.7891 31.2383 19.8984C31.3555 20.0078 31.4844 20.0625 31.625 20.0625C31.7656 20.0625 31.8945 20.0078 32.0117 19.8984C32.1289 19.7891 32.1875 19.5938 32.1875 19.3125V3ZM37.8125 16.0664C37.8125 15.2383 37.7695 14.5273 37.6836 13.9336C37.5977 13.3398 37.4844 12.8242 37.3438 12.3867C37.2031 11.9414 37.043 11.5547 36.8633 11.2266C36.6836 10.8984 36.5 10.5898 36.3125 10.3008C36.125 10.0117 35.9414 9.72266 35.7617 9.43359C35.582 9.14453 35.4219 8.81641 35.2812 8.44922C35.1406 8.08203 35.0273 7.66016 34.9414 7.18359C34.8555 6.69922 34.8125 6.12109 34.8125 5.44922V2.625C34.8125 2.4375 34.8398 2.22656 34.8945 1.99219C34.957 1.75 35.0703 1.52734 35.2344 1.32422C35.3984 1.11328 35.625 0.9375 35.9141 0.796875C36.2109 0.648437 36.5938 0.574219 37.0625 0.574219C37.5312 0.574219 37.9102 0.648437 38.1992 0.796875C38.4961 0.9375 38.7266 1.11328 38.8906 1.32422C39.0547 1.52734 39.1641 1.75 39.2188 1.99219C39.2812 2.22656 39.3125 2.4375 39.3125 2.625V7.875H37.8125V2.625C37.8125 2.4375 37.7891 2.28516 37.7422 2.16797C37.7031 2.04297 37.6484 1.94922 37.5781 1.88672C37.5078 1.81641 37.4258 1.76953 37.332 1.74609C37.2461 1.71484 37.1562 1.69922 37.0625 1.69922C36.9688 1.69922 36.875 1.71484 36.7812 1.74609C36.6953 1.76953 36.6172 1.81641 36.5469 1.88672C36.4766 1.94922 36.418 2.04297 36.3711 2.16797C36.332 2.28516 36.3125 2.4375 36.3125 2.625V4.91016C36.3125 5.79297 36.3867 6.53125 36.5352 7.125C36.6836 7.71875 36.8672 8.23828 37.0859 8.68359C37.3125 9.12109 37.5547 9.51953 37.8125 9.87891C38.0703 10.2383 38.3086 10.6289 38.5273 11.0508C38.7539 11.4648 38.9414 11.9492 39.0898 12.5039C39.2383 13.0508 39.3125 13.7344 39.3125 14.5547V19.125C39.3125 19.2188 39.3008 19.3906 39.2773 19.6406C39.2539 19.8828 39.1719 20.1328 39.0312 20.3906C38.8906 20.6484 38.668 20.875 38.3633 21.0703C38.0586 21.2734 37.625 21.375 37.0625 21.375C36.5 21.375 36.0664 21.2734 35.7617 21.0703C35.457 20.875 35.2344 20.6484 35.0938 20.3906C34.9531 20.1328 34.8711 19.8828 34.8477 19.6406C34.8242 19.3906 34.8125 19.2188 34.8125 19.125V12.375H36.3125V19.125C36.3125 19.2188 36.3164 19.332 36.3242 19.4648C36.332 19.5898 36.3594 19.7109 36.4062 19.8281C36.4531 19.9453 36.5273 20.0469 36.6289 20.1328C36.7305 20.2109 36.875 20.25 37.0625 20.25C37.25 20.25 37.3945 20.2109 37.4961 20.1328C37.5977 20.0469 37.6719 19.9453 37.7188 19.8281C37.7656 19.7109 37.793 19.5898 37.8008 19.4648C37.8086 19.332 37.8125 19.2188 37.8125 19.125V16.0664Z"
          fill="#28234A"/>
    <path fill-rule="evenodd" clip-rule="evenodd" d="M39 22H39V23H39V22ZM38.1282 23H5L5.87179 22H39L38.1282 23Z"
          fill="#50E9D2"/>
</svg>
