<svg width="111" height="48" viewBox="0 0 111 48" fill="none" xmlns="http://www.w3.org/2000/svg">
    <path d="M4.685 5.25C4.685 5.0625 4.69281 4.85937 4.70844 4.64062C4.72406 4.42188 4.77875 4.22656 4.8725 4.05469C4.96625 3.86719 5.11469 3.71094 5.31781 3.58594C5.52094 3.46094 5.81 3.39844 6.185 3.39844C6.56 3.39844 6.84906 3.46094 7.05219 3.58594C7.25531 3.71094 7.40375 3.86719 7.4975 4.05469C7.59125 4.22656 7.64594 4.42188 7.66156 4.64062C7.67719 4.85937 7.685 5.0625 7.685 5.25V38.25C7.685 38.4375 7.67719 38.6641 7.66156 38.9297C7.64594 39.1797 7.59125 39.4219 7.4975 39.6562C7.40375 39.8906 7.25531 40.0938 7.05219 40.2656C6.84906 40.4219 6.56 40.5 6.185 40.5C5.81 40.5 5.52094 40.4219 5.31781 40.2656C5.11469 40.0938 4.96625 39.8906 4.8725 39.6562C4.77875 39.4219 4.72406 39.1797 4.70844 38.9297C4.69281 38.6641 4.685 38.4375 4.685 38.25V5.25ZM10.685 5.25C10.685 5.125 10.6772 4.9375 10.6616 4.6875C10.6459 4.4375 10.5991 4.16406 10.5209 3.86719C10.4428 3.55469 10.31 3.24219 10.1225 2.92969C9.935 2.60156 9.67719 2.30469 9.34906 2.03906C9.02094 1.77344 8.59906 1.5625 8.08344 1.40625C7.56781 1.23438 6.935 1.14844 6.185 1.14844C5.435 1.14844 4.80219 1.23438 4.28656 1.40625C3.77094 1.5625 3.34906 1.77344 3.02094 2.03906C2.69281 2.30469 2.435 2.60156 2.2475 2.92969C2.06 3.24219 1.92719 3.55469 1.84906 3.86719C1.77094 4.16406 1.72406 4.4375 1.70844 4.6875C1.69281 4.9375 1.685 5.125 1.685 5.25V38.25C1.685 38.4375 1.70844 38.7812 1.75531 39.2812C1.80219 39.7656 1.96625 40.2656 2.2475 40.7812C2.52875 41.2969 2.97406 41.75 3.58344 42.1406C3.91156 42.3594 4.30219 42.5156 4.75531 42.6094L5.435 48H8.435L7.75531 42.5859C8.16156 42.4766 8.50531 42.3281 8.78656 42.1406C9.39594 41.75 9.84125 41.2969 10.1225 40.7812C10.4038 40.2656 10.5678 39.7656 10.6147 39.2812C10.6616 38.7812 10.685 38.4375 10.685 38.25V5.25ZM19.415 6H22.415V38.625C22.415 39.2812 22.2978 39.8516 22.0634 40.3359C21.8291 40.8047 21.5166 41.1953 21.1259 41.5078C20.7353 41.8047 20.29 42.0234 19.79 42.1641C19.3056 42.3047 18.8056 42.375 18.29 42.375C17.7744 42.375 17.2666 42.3047 16.7666 42.1641C16.2822 42.0234 15.8447 41.8047 15.4541 41.5078C15.0634 41.1953 14.7509 40.8047 14.5166 40.3359C14.2822 39.8516 14.165 39.2812 14.165 38.625V6H17.165V38.625C17.165 39.1875 17.2822 39.5781 17.5166 39.7969C17.7509 40.0156 18.0088 40.125 18.29 40.125C18.5713 40.125 18.8291 40.0156 19.0634 39.7969C19.2978 39.5781 19.415 39.1875 19.415 38.625V6ZM34.145 42H31.145L30.6763 34.2188H28.5903L28.145 42H25.145L28.145 6H31.145L34.145 42ZM30.5122 31.7812L29.645 13.5L28.7544 31.7812H30.5122ZM42.875 8.95312C42.875 8.65625 42.7344 8.46875 42.4531 8.39062C42.1875 8.29688 41.3281 8.25 39.875 8.25V39.75C41.3281 39.75 42.1875 39.7031 42.4531 39.6094C42.7344 39.5156 42.875 39.3203 42.875 39.0234V8.95312ZM45.875 38.8359C45.875 39.6328 45.7031 40.25 45.3594 40.6875C45.0312 41.1094 44.5391 41.4219 43.8828 41.625C43.5703 41.7188 43.1875 41.7969 42.7344 41.8594C42.2812 41.9062 41.6562 41.9453 40.8594 41.9766C40.0625 41.9922 39.3594 42 38.75 42H36.875V6C37.5156 6 38.1562 6.00781 38.7969 6.02344C39.4531 6.02344 40.1172 6.03125 40.7891 6.04688C42.1641 6.07812 43.1797 6.17969 43.8359 6.35156C44.5078 6.53906 45.0156 6.84375 45.3594 7.26562C45.7031 7.67187 45.875 8.25781 45.875 9.02344V38.8359ZM57.605 21C57.605 21.75 57.4175 22.3281 57.0425 22.7344C56.6675 23.1406 56.105 23.4297 55.355 23.6016C56.105 23.8047 56.6675 24.1094 57.0425 24.5156C57.4175 24.9219 57.605 25.5 57.605 26.25V42H54.605V26.25C54.605 25.875 54.5581 25.5859 54.4644 25.3828C54.3706 25.1797 54.23 25.0312 54.0425 24.9375C53.855 24.8438 53.6206 24.7891 53.3394 24.7734C53.0581 24.7578 52.73 24.75 52.355 24.75V42H49.355V6H52.73C53.7456 6 54.6128 6.08594 55.3316 6.25781C56.0659 6.41406 56.6284 6.70312 57.0191 7.125C57.4097 7.53125 57.605 8.15625 57.605 9V21ZM54.605 9.75C54.605 9.375 54.5581 9.08594 54.4644 8.88281C54.3706 8.67969 54.23 8.53125 54.0425 8.4375C53.855 8.34375 53.6206 8.28906 53.3394 8.27344C53.0581 8.25781 52.73 8.25 52.355 8.25V22.5C52.73 22.5 53.0581 22.4922 53.3394 22.4766C53.6206 22.4609 53.855 22.4062 54.0425 22.3125C54.23 22.2188 54.3706 22.0703 54.4644 21.8672C54.5581 21.6641 54.605 21.375 54.605 21V9.75ZM66.335 6H69.335V38.625C69.335 39.2812 69.2178 39.8516 68.9834 40.3359C68.7491 40.8047 68.4366 41.1953 68.0459 41.5078C67.6553 41.8047 67.21 42.0234 66.71 42.1641C66.2256 42.3047 65.7256 42.375 65.21 42.375C64.6944 42.375 64.1866 42.3047 63.6866 42.1641C63.2022 42.0234 62.7647 41.8047 62.3741 41.5078C61.9834 41.1953 61.6709 40.8047 61.4366 40.3359C61.2022 39.8516 61.085 39.2812 61.085 38.625V6H64.085V38.625C64.085 39.1875 64.2022 39.5781 64.4366 39.7969C64.6709 40.0156 64.9288 40.125 65.21 40.125C65.4913 40.125 65.7491 40.0156 65.9834 39.7969C66.2178 39.5781 66.335 39.1875 66.335 38.625V6ZM78.065 32.1328C78.065 30.4766 77.9791 29.0547 77.8072 27.8672C77.6353 26.6797 77.4088 25.6484 77.1275 24.7734C76.8463 23.8828 76.5259 23.1094 76.1666 22.4531C75.8072 21.7969 75.44 21.1797 75.065 20.6016C74.69 20.0234 74.3228 19.4453 73.9634 18.8672C73.6041 18.2891 73.2838 17.6328 73.0025 16.8984C72.7213 16.1641 72.4947 15.3203 72.3228 14.3672C72.1509 13.3984 72.065 12.2422 72.065 10.8984V5.25C72.065 4.875 72.1197 4.45312 72.2291 3.98438C72.3541 3.5 72.5806 3.05469 72.9088 2.64844C73.2369 2.22656 73.69 1.875 74.2681 1.59375C74.8619 1.29687 75.6275 1.14844 76.565 1.14844C77.5025 1.14844 78.2603 1.29687 78.8384 1.59375C79.4322 1.875 79.8931 2.22656 80.2213 2.64844C80.5494 3.05469 80.7681 3.5 80.8775 3.98438C81.0025 4.45312 81.065 4.875 81.065 5.25V15.75H78.065V5.25C78.065 4.875 78.0181 4.57031 77.9244 4.33594C77.8463 4.08594 77.7369 3.89844 77.5963 3.77344C77.4556 3.63281 77.2916 3.53906 77.1041 3.49219C76.9322 3.42969 76.7525 3.39844 76.565 3.39844C76.3775 3.39844 76.19 3.42969 76.0025 3.49219C75.8306 3.53906 75.6744 3.63281 75.5338 3.77344C75.3931 3.89844 75.2759 4.08594 75.1822 4.33594C75.1041 4.57031 75.065 4.875 75.065 5.25V9.82031C75.065 11.5859 75.2134 13.0625 75.5103 14.25C75.8072 15.4375 76.1744 16.4766 76.6119 17.3672C77.065 18.2422 77.5494 19.0391 78.065 19.7578C78.5806 20.4766 79.0572 21.2578 79.4947 22.1016C79.9478 22.9297 80.3228 23.8984 80.6197 25.0078C80.9166 26.1016 81.065 27.4688 81.065 29.1094V38.25C81.065 38.4375 81.0416 38.7812 80.9947 39.2812C80.9478 39.7656 80.7838 40.2656 80.5025 40.7812C80.2213 41.2969 79.7759 41.75 79.1666 42.1406C78.5572 42.5469 77.69 42.75 76.565 42.75C75.44 42.75 74.5728 42.5469 73.9634 42.1406C73.3541 41.75 72.9088 41.2969 72.6275 40.7812C72.3463 40.2656 72.1822 39.7656 72.1353 39.2812C72.0884 38.7812 72.065 38.4375 72.065 38.25V24.75H75.065V38.25C75.065 38.4375 75.0728 38.6641 75.0884 38.9297C75.1041 39.1797 75.1588 39.4219 75.2525 39.6562C75.3463 39.8906 75.4947 40.0938 75.6978 40.2656C75.9009 40.4219 76.19 40.5 76.565 40.5C76.94 40.5 77.2291 40.4219 77.4322 40.2656C77.6353 40.0938 77.7838 39.8906 77.8775 39.6562C77.9713 39.4219 78.0259 39.1797 78.0416 38.9297C78.0572 38.6641 78.065 38.4375 78.065 38.25V32.1328Z"
          fill="#28234A"/>
    <path fill-rule="evenodd" clip-rule="evenodd" d="M12.4872 44H107L104.513 46H10L12.4872 44Z" fill="#50E9D2"/>
    <path d="M88.8663 15H91.1163V42H88.8663V28.8867H86.6163V42H84.3663V15H86.6163V27.1289H88.8663V15ZM100.476 39.4688C100.476 39.9609 100.382 40.3887 100.195 40.752C100.019 41.1035 99.779 41.3965 99.4743 41.6309C99.1696 41.8652 98.8239 42.0352 98.4372 42.1406C98.0505 42.2578 97.652 42.3164 97.2419 42.3164C96.8083 42.3164 96.3805 42.252 95.9587 42.123C95.5368 42.0059 95.1618 41.8301 94.8337 41.5957C94.5055 41.3496 94.236 41.0508 94.0251 40.6992C93.8259 40.3359 93.7262 39.9258 93.7262 39.4688V17.5312C93.7262 17.0859 93.8259 16.6934 94.0251 16.3535C94.236 16.002 94.5055 15.709 94.8337 15.4746C95.1735 15.2402 95.5544 15.0645 95.9762 14.9473C96.3981 14.8184 96.8259 14.7539 97.2595 14.7539C97.6696 14.7539 98.068 14.8125 98.4548 14.9297C98.8415 15.0352 99.1813 15.2051 99.4743 15.4395C99.779 15.6621 100.019 15.9492 100.195 16.3008C100.382 16.6523 100.476 17.0625 100.476 17.5312V39.4688ZM98.2262 17.5312C98.2262 17.1328 98.1266 16.8516 97.9274 16.6875C97.7399 16.5117 97.5173 16.4238 97.2595 16.4238C97.1071 16.4238 96.9548 16.4531 96.8024 16.5117C96.6501 16.5586 96.5095 16.6348 96.3805 16.7402C96.2634 16.834 96.1637 16.9512 96.0817 17.0918C96.0114 17.2207 95.9762 17.3672 95.9762 17.5312V39.4688C95.9762 39.6328 96.0114 39.7852 96.0817 39.9258C96.1637 40.0664 96.2634 40.1836 96.3805 40.2773C96.5095 40.3711 96.6442 40.4473 96.7848 40.5059C96.9372 40.5527 97.0895 40.5762 97.2419 40.5762C97.4997 40.5762 97.7282 40.4941 97.9274 40.3301C98.1266 40.1543 98.2262 39.8672 98.2262 39.4688V17.5312ZM109.836 26.8125C109.836 27.5156 109.707 28.0605 109.45 28.4473C109.192 28.8223 108.852 29.0977 108.43 29.2734C108.008 29.4492 107.528 29.5547 106.989 29.5898C106.45 29.6133 105.899 29.625 105.336 29.625V42H103.086V15H105.899C106.895 15 107.657 15.0937 108.184 15.2812C108.723 15.4688 109.116 15.7031 109.362 15.9844C109.608 16.2656 109.748 16.5703 109.784 16.8984C109.819 17.2266 109.836 17.5312 109.836 17.8125V26.8125ZM107.586 17.8125C107.586 17.5312 107.545 17.3145 107.463 17.1621C107.393 17.0098 107.27 16.8984 107.094 16.8281C106.918 16.7578 106.684 16.7168 106.391 16.7051C106.11 16.6934 105.758 16.6875 105.336 16.6875V27.9375C105.618 27.9375 105.893 27.9316 106.162 27.9199C106.432 27.8965 106.672 27.832 106.883 27.7266C107.094 27.6211 107.264 27.457 107.393 27.2344C107.522 27 107.586 26.6719 107.586 26.25V17.8125Z"
          fill="#676767" fill-opacity="0.8"/>
    <path d="M107.052 12.2922L104.536 10.8372L104.548 10.8178C104.84 10.3132 104.667 9.66497 104.162 9.37267C103.656 9.08037 103.007 9.25303 102.714 9.75756L102.703 9.77702L100.187 8.32206C100.025 8.22863 99.8185 8.28362 99.725 8.44489C99.6314 8.60617 99.6865 8.81266 99.848 8.90609L102.052 10.1806L101.86 10.5115C101.856 10.5181 101.853 10.5247 101.849 10.5313L99.9628 9.44049C99.9626 9.44033 99.9623 9.44018 99.962 9.44002L93.7107 5.82496C93.7102 5.82469 93.7097 5.82442 93.7093 5.82415L91.8231 4.73342C91.827 4.72699 91.8311 4.72079 91.8349 4.71425L92.027 4.3833L94.2309 5.6578C94.3925 5.75123 94.5994 5.69624 94.693 5.53497C94.7865 5.3737 94.7314 5.1672 94.5699 5.07377L92.0539 3.6188L92.0652 3.59934C92.3579 3.09481 92.1849 2.44655 91.6795 2.15425C91.174 1.86195 90.5246 2.0346 90.2318 2.53913L90.2205 2.5586L87.7045 1.10363C87.5429 1.0102 87.3361 1.0652 87.2425 1.22647C87.1489 1.38774 87.204 1.59423 87.3656 1.68767L89.5695 2.96217L89.3774 3.29312C88.985 3.96939 89.2169 4.83835 89.8944 5.23016C90.3523 5.49491 90.898 5.47472 91.325 5.2254L93.1657 6.28985L92.9643 7.26498C92.8094 8.01545 93.1515 8.77775 93.8158 9.16189L95.12 9.91612L94.708 10.6261C94.2748 10.5387 93.8144 10.7297 93.5808 11.1321C93.288 11.6366 93.461 12.2849 93.9665 12.5772C94.472 12.8695 95.1214 12.6968 95.4142 12.1923C95.6477 11.7899 95.5846 11.2962 95.2932 10.9644L95.7052 10.2545L97.0094 11.0087C97.6737 11.3929 98.5064 11.3099 99.0815 10.8024L99.8287 10.143L101.669 11.2074C101.665 11.7012 101.919 12.1838 102.377 12.4486C103.054 12.8404 103.925 12.6089 104.317 11.9327L104.509 11.6017L106.713 12.8762C106.875 12.9697 107.082 12.9147 107.175 12.7534C107.269 12.5921 107.214 12.3856 107.052 12.2922ZM90.8169 2.87749C90.9228 2.695 91.1577 2.63255 91.3405 2.73828C91.5234 2.84401 91.5859 3.07848 91.48 3.26097L91.4687 3.28044L90.8056 2.89696L90.8169 2.87749ZM90.2334 4.64612C89.8785 4.44089 89.757 3.98572 89.9625 3.63149L90.1546 3.30053L91.4419 4.04493L91.2498 4.37589C91.0442 4.73012 90.5882 4.85135 90.2334 4.64612ZM94.3054 11.9931C94.1226 11.8874 94.06 11.6529 94.1659 11.4705C94.2718 11.288 94.5067 11.2255 94.6895 11.3312C94.8724 11.437 94.935 11.6714 94.8291 11.8539C94.7231 12.0364 94.4883 12.0989 94.3054 11.9931ZM98.6335 10.2967C98.2768 10.6115 97.7604 10.6629 97.3483 10.4247L94.1547 8.57785C93.7427 8.33958 93.5305 7.86678 93.6266 7.4013L93.7824 6.6465L99.2119 9.78625L98.6335 10.2967ZM103.299 10.0959C103.405 9.91343 103.64 9.85098 103.823 9.95671C104.006 10.0624 104.068 10.2969 103.963 10.4794L103.951 10.4989L103.288 10.1154L103.299 10.0959ZM103.732 11.5943C103.527 11.9485 103.071 12.0698 102.716 11.8645C102.361 11.6593 102.239 11.2041 102.445 10.8499L102.637 10.519L103.924 11.2634L103.732 11.5943Z"
          fill="#858585"/>
    <path fill-rule="evenodd" clip-rule="evenodd" d="M89 7H89V8H89V7ZM88.8461 8H83L83.1538 7H89L88.8461 8Z"
          fill="#6A6A6A" fill-opacity="0.5"/>
    <path fill-rule="evenodd" clip-rule="evenodd" d="M86.1795 10H93V10.0002L92.8206 11H86L86.1795 10Z" fill="#6A6A6A"
          fill-opacity="0.5"/>
</svg>
